<svg xmlns="http://www.w3.org/2000/svg" viewBox="0 0 1000 1000">
  <path fill="#3C4043" d="
M 473.46 74.92
C 248.32 94.55 60.8 245.88 18.27 442.19
c -19.63 91.2 -4.29 179.95 46.01 266.04
C 94.34 759.97 149.14 816 204.56 852.4
c 24.33 15.75 74.43 40.29 101.22 49.28
  63.19 21.27 124.33 28.83 194.27 23.92
  82.61 -5.73 154.59 -22.49 221.87 -51.33
  102.45 -43.76 183.02 -112.67 231.89 -198.15
  42.53 -74.43 47.03 -120.85 16.36 -166.86
  -19.22 -28.63 -29.45 -35.58 -107.15 -71.37
  -72.59 -33.54 -90.79 -45.6 -106.54 -69.94
  -10.22 -15.75 -14.11 -29.45 -11.04 -38.65
  6.54 -19.63 35.99 -21.88 87.52 -6.54
  47.03 13.7 72.18 6.13 81.39 -24.54
  9.2 -30.26 -1.84 -52.55 -48.06 -98.77
  -26.79 -26.58 -51.13 -45.19 -81.39 -61.95
C 697.58 89.24 580 65.72 473.46 74.92
z"/>

  <path fill="#1A73E8" d="
M 408.43 183.3
c 41.31 8.79 69.12 45.4 66.66 87.93
  -2.86 48.67 -46.62 83.84 -95.7 77.09
  -58.48 -7.98 -90.59 -76.89 -59.1 -126.78
  19.44 -30.26 54.2 -45.39 88.14 -38.24
z"/>

  <path fill="#D93025" d="
M 242.59 364.69
c 32.92 15.75 53.58 54.6 47.24 88.75
  -5.32 28.63 -22.7 51.12 -49.08 63.6
  -12.47 5.93 -15.34 6.54 -34.35 6.54
  -19.63 0 -21.06 -.41 -35.99 -7.77
  -58.48 -28.83 -64 -107.97 -10.43 -144.99
  15.13 -10.22 29.45 -14.11 50.71 -13.29
  15.75 .61 20.45 1.63 31.9 7.16
z"/>

  <path fill="#F9AB00" d="
M 283.7 600.46
c 25.76 5.32 52.15 27.2 61.14 50.31
  6.75 17.79 7.57 41.1 1.84 57.66
  -24.33 72.19 -121.06 79.14 -154.8 11.04
  -23.72 -48.06 2.25 -103.88 55.21 -118.2
  13.29 -3.47 22.7 -3.67 36.61 -.81
z"/>

  <path fill="#1E8E3E" d="
M 539.31 672.03
c 50.3 16.77 72.8 72.8 48.26 119.01
  -8.38 15.54 -26.79 32.51 -41.92 38.44
  -9.61 3.89 -15.95 4.7 -32.52 4.91
  -19.63 0 -21.06 -.41 -35.99 -7.77
  -33.54 -16.36 -50.71 -48.67 -46.21 -86.7
  5.72 -50.5 59.71 -84.45 108.38 -67.89
z"/>

  <path fill="#9334E6" d="
M 765.88 575.72
c 58.69 11.04 88.34 77.5 57.05 127.19
  -35.79 56.03 -116.97 51.74 -146.42 -7.77
  -16.97 -34.35 -9.2 -73.62 19.84 -99.79
  13.29 -12.06 34.97 -20.65 53.37 -21.47
  3.07 -.21 10.23 .82 16.16 1.84
z"/>
</svg>
